<svg
	fill="none"
	viewBox="0 0 867 105"
	preserveAspectRatio="xMidYMid meet"
	width="100%"
	height="auto"
	xmlns="http://www.w3.org/2000/svg"
	xmlns:xlink="http://www.w3.org/1999/xlink"
>
	<linearGradient id="a" gradientUnits="userSpaceOnUse" x1="17" x2="850.283" y1="52.2763" y2="52.2763">
		<stop offset="0" stop-color="#f00069"/>
		<stop offset="1" stop-color="#bd0088"/>
	</linearGradient>
	<path d="m17 84.2564c5.1353-12.2279 39.765-49.4544 69.6954-69.7535 16.4686-11.16931 18.7486 43.166 28.7776 55.8396 7.064 8.9282 34.426-26.0062 54.551-36.1315 4.695-2.3625 12.199-1.6181 17.101-.0291 20.093 6.5123 21.704 31.9748 25.89 33.5929 21.51 8.315 50.017-41.6156 59.754-44.2415 9.698-2.615 14.835 18.6714 27.431 30.6474 3.07 2.9187 7.402 3.5657 10.658 3.9048 14.311 1.4907 36.742-24.0974 49.115-30.9962 11.736-6.5435 18.09 28.0603 27.76 36.7904 5.516 4.9794 13.585 2.2964 31.529-4.7477 15.514-6.09 43.525-18.5551 62.177-24.8144 26.244-8.8071 37.449-5.6198 41.955-3.0522 21.838 12.4455 44.464 52.8747 66.498 59.7735 8.149 2.5518 16.181-4.8253 28.709-12.848 23.158-14.8296 47.468-32.6337 66.508-40.3949 7.214-2.9409 10.726-.0872 15.251 6.3369 11.586 16.4491 19.407 32.3333 25.531 38.4666 2.628 2.6323 5.484 2.9359 9.36-4.4086s8.992-22.6924 12.906-30.2792c3.915-7.5867 6.473-6.9472 9.389-4.6993 6.832 5.2659 13.245 12.5961 20.658 16.7916 6.218 3.5197 11.985 2.2964 15.851.6879 4.129-1.7178 8.401-5.4841 14.835-8.3909 18.1.2907 28.448 4.1664 33.283 6.424 2.277.9786 4.195 1.6181 8.11 2.277" stroke="url(#a)" stroke-linecap="round" stroke-width="8"/>
</svg>